<?xml version="1.0" encoding="UTF-8"?>
<svg xmlns="http://www.w3.org/2000/svg" version="1.1" viewBox="0 0 1696.5 855.5">
  <defs>
    <style>
      .cls-1 {
        isolation: isolate;
      }

      .cls-2 {
        fill: none;
        stroke: #000;
        stroke-miterlimit: 10;
        stroke-width: 5.7px;
      }
    </style>
  </defs>
  <!-- Generator: Adobe Illustrator 28.7.1, SVG Export Plug-In . SVG Version: 1.2.0 Build 142)  -->
  <g>
    <g id="Layer_1">
      <g id="Layer_1-2" data-name="Layer_1">
        <g>
          <path d="M540.8,136.1v155h18.4c1.8,0,3.9,0,3.9,2.4s-2,2.4-3.8,2.4h-180.6c-1.8,0-3.3-.3-3.4-2.4,0-2.1,1.6-2.4,3.3-2.4h18.9v-155h-4.5c-1.9,0-3-.9-3-2.8v-23c0-2,1-2.9,2.9-2.9h150.9c4.1,0,4.5.4,4.5,4.6v20.2c0,3.4-.5,3.9-3.9,3.9h-3.6ZM402.4,136.2v154.7h42.7v-41.6c0-3.7.4-4.1,4.2-4.1h39.2c4.1,0,4.5.3,4.5,4.4v38.9c0,2.1.6,2.7,2.7,2.6h37.7c.8,0,1.6,0,2.4-.1v-154.7h-133.4ZM543.4,112.3h-148.6v18.8h148.6v-18.8h0ZM466.5,290.9v-40.8h-16.6v40.8h16.6ZM488.1,290.9v-40.8h-16.6v40.8h16.6Z"/>
          <path d="M508.6,181.8h-11c-2.8,0-3.4-.7-3.5-3.4v-17.7c0-7.4,6.2-13.6,13.6-14,7.3-.4,14.3,5,14.8,12.3.5,6.7.2,13.5.2,20.2s-1.3,2.5-3,2.5h-11.2.1ZM518.1,177c0-5.8.2-11.3,0-16.9-.2-4.1-3.3-7.3-7.2-8.3-3.8-1-7.7.4-10.1,3.7-.8,1-1.6,2.4-1.6,3.6-.2,5.9,0,11.9,0,17.9h19.1-.2Z"/>
          <path d="M469,181.8h-10.7c-3,0-3.6-.6-3.6-3.5v-17.7c0-7.5,6.3-13.7,13.9-13.9,7.4-.2,14.2,5.5,14.6,12.9.4,6.5,0,13,0,19.5s-1.3,2.7-3.1,2.7h-11.2,0ZM478.7,177c0-5.7.2-11.1,0-16.5-.3-5.4-4.9-9.3-10-9-5.2.3-9.2,4.5-9.2,9.9v13.5c0,.7,0,1.4.2,2.1h19.1,0Z"/>
          <path d="M429.5,181.8h-11c-2.3,0-3.3-1-3.3-3.3v-18c0-7.6,6.4-13.6,14-13.8,7.5-.2,14.2,5.7,14.6,13.2.3,6.3,0,12.6,0,19s-1.2,2.9-3.2,2.9h-11.2.1ZM439,177c0-6,.4-11.8,0-17.5-.4-5-5.2-8.4-10.1-8-5,.4-8.9,4.5-8.9,9.6v14c0,.6,0,1.3.2,1.9h18.9-.1Z"/>
          <path d="M429.5,231.1h-11c-2.3,0-3.3-1-3.3-3.3v-17.7c.2-8,6.4-14,14.2-14.1,7.8,0,14.2,6,14.4,13.9.2,6,0,12,0,18s-1,3.2-3.2,3.2h-11.2,0ZM439,226.4c0-6,.4-11.9,0-17.6-.4-5-5.2-8.5-10-8.1-4.9.4-8.9,4.6-9,9.6v16.1h19.1,0Z"/>
          <path d="M469.1,231.1h-11c-2.8,0-3.4-.6-3.5-3.3v-17.9c.2-7.7,6.5-13.7,14.2-13.8,7.7,0,14.1,5.9,14.3,13.6.2,6.1,0,12.3,0,18.4s-1,3-3.1,3h-11.2.3ZM478.5,226.4c0-6,.4-11.9,0-17.7-.4-4.7-4.8-8-9.4-8s-9.1,3.5-9.4,8c-.4,5.8,0,11.7,0,17.7h19-.2Z"/>
          <path d="M508.5,231.1h-11c-2.7,0-3.4-.7-3.4-3.4v-17.7c0-7.6,6.3-13.7,13.8-13.9,7.8-.2,14.4,5.5,14.7,13.2.3,6.3,0,12.6,0,18.9s-1.1,2.9-3.2,2.9h-11.2.3ZM518.1,226.4c0-5.8.2-11.4,0-16.9-.3-5.2-5-9.1-9.9-8.8-5.1.2-9.2,4.5-9.3,9.8v15.9h19.3,0Z"/>
        </g>
        <g>
          <path d="M109.1,165.4c0,14.6-11.9,26.8-26.6,26.8s-26.6-11.9-26.7-26.7c0-14.7,11.9-26.7,26.6-26.8,14.7,0,26.6,11.9,26.7,26.7ZM82.4,187.5c12.1,0,22-9.9,21.9-22,0-12.2-9.9-22-22-22s-22,10-21.9,22.1c0,12.2,9.9,22,22,22h0Z"/>
          <path d="M82.9,195.3c-29.6,0-53.7,27.7-53.7,61.8v38.8c0,1.6,1.3,2.8,2.8,2.8s2.8-1.3,2.8-2.8v-38.8c0-31,21.5-56.2,48-56.2s48,25.2,48,56.2v38.8c0,1.6,1.3,2.8,2.8,2.8s2.8-1.3,2.8-2.8v-38.8c0-34.1-24.1-61.8-53.7-61.8h.2Z"/>
        </g>
        <g>
          <path d="M1313,136.1v155h18.4c1.8,0,3.9,0,3.9,2.4s-2,2.4-3.8,2.4h-180.6c-1.8,0-3.3-.3-3.4-2.4,0-2.1,1.6-2.4,3.3-2.4h18.9v-155h-4.5c-1.9,0-3-.9-3-2.8v-23c0-2,1-2.9,2.9-2.9h150.9c4.1,0,4.5.4,4.5,4.6v20.2c0,3.4-.5,3.9-3.9,3.9h-3.6ZM1174.7,136.2v154.7h42.7v-41.6c0-3.7.4-4.1,4.2-4.1h39.2c4.1,0,4.5.3,4.5,4.4v38.9c0,2.1.6,2.7,2.7,2.6h37.7c.8,0,1.6,0,2.4-.1v-154.7h-133.4,0ZM1315.6,112.3h-148.6v18.8h148.6v-18.8ZM1238.8,290.9v-40.8h-16.6v40.8h16.6ZM1260.3,290.9v-40.8h-16.6v40.8h16.6Z"/>
          <path d="M1280.8,181.8h-11c-2.8,0-3.4-.7-3.5-3.4v-17.7c0-7.4,6.2-13.6,13.6-14,7.3-.4,14.3,5,14.8,12.3.5,6.7.2,13.5.2,20.2s-1.3,2.5-3,2.5h-11.2,0ZM1290.3,177c0-5.8.2-11.3,0-16.9-.2-4.1-3.3-7.3-7.2-8.3-3.8-1-7.7.4-10.1,3.7-.8,1-1.6,2.4-1.6,3.6-.2,5.9,0,11.9,0,17.9h19.1-.2Z"/>
          <path d="M1241.2,181.8h-10.7c-3,0-3.6-.6-3.6-3.5v-17.7c0-7.5,6.3-13.7,13.9-13.9,7.4-.2,14.2,5.5,14.6,12.9.4,6.5,0,13,0,19.5s-1.3,2.7-3.1,2.7h-11.2,0ZM1250.9,177c0-5.7.2-11.1,0-16.5-.3-5.4-4.9-9.3-10-9-5.2.3-9.2,4.5-9.2,9.9v13.5c0,.7,0,1.4.2,2.1h19.1,0Z"/>
          <path d="M1201.7,181.8h-11c-2.3,0-3.3-1-3.3-3.3v-18c0-7.6,6.4-13.6,14-13.8,7.5-.2,14.2,5.7,14.6,13.2.3,6.3,0,12.6,0,19s-1.2,2.9-3.2,2.9h-11.2,0ZM1211.2,177c0-6,.4-11.8,0-17.5-.4-5-5.2-8.4-10.1-8-5,.4-8.9,4.5-8.9,9.6v14c0,.6,0,1.3.2,1.9h18.9,0Z"/>
          <path d="M1201.7,231.1h-11c-2.3,0-3.3-1-3.3-3.3v-17.7c.2-8,6.4-14,14.2-14.1,7.8,0,14.2,6,14.4,13.9.2,6,0,12,0,18s-1,3.2-3.2,3.2h-11.2,0ZM1211.2,226.4c0-6,.4-11.9,0-17.6-.4-5-5.2-8.5-10-8.1-4.9.4-8.9,4.6-9,9.6v16.1h19.1,0Z"/>
          <path d="M1241.3,231.1h-11c-2.8,0-3.4-.6-3.5-3.3v-17.9c.2-7.7,6.5-13.7,14.2-13.8,7.7,0,14.1,5.9,14.3,13.6.2,6.1,0,12.3,0,18.4s-1,3-3.1,3h-11.2.3,0ZM1250.7,226.4c0-6,.4-11.9,0-17.7-.4-4.7-4.8-8-9.4-8s-9.1,3.5-9.4,8c-.4,5.8,0,11.7,0,17.7h19-.2Z"/>
          <path d="M1280.7,231.1h-11c-2.7,0-3.4-.7-3.4-3.4v-17.7c0-7.6,6.3-13.7,13.8-13.9,7.8-.2,14.4,5.5,14.7,13.2.3,6.3,0,12.6,0,18.9s-1.1,2.9-3.2,2.9h-11.2.3ZM1290.3,226.4c0-5.8.2-11.4,0-16.9-.3-5.2-5-9.1-9.9-8.8-5.1.2-9.2,4.5-9.3,9.8v15.9h19.3,0Z"/>
        </g>
        <g>
          <path d="M881.3,165.4c0,14.6-11.9,26.8-26.6,26.8s-26.6-11.9-26.7-26.7c0-14.7,11.9-26.7,26.6-26.8,14.7,0,26.6,11.9,26.7,26.7ZM854.7,187.5c12.1,0,22-9.9,21.9-22,0-12.2-9.9-22-22-22s-22,10-21.9,22.1c0,12.2,9.9,22,22,22h0Z"/>
          <path class="cls-2" d="M804.3,257.1c0-32.6,22.8-59,50.9-59s50.9,26.4,50.9,59"/>
          <line class="cls-2" x1="804.3" y1="257.1" x2="804.3" y2="295.9"/>
          <line class="cls-2" x1="906" y1="257.1" x2="906" y2="295.9"/>
        </g>
        <g>
          <path d="M1653.5,165.4c0,14.6-11.9,26.8-26.6,26.8s-26.6-11.9-26.7-26.7c0-14.7,11.9-26.7,26.6-26.8,14.7,0,26.6,11.9,26.7,26.7ZM1626.9,187.5c12.1,0,22-9.9,21.9-22,0-12.2-9.9-22-22-22s-22,10-21.9,22.1c0,12.2,9.9,22,22,22h0Z"/>
          <path class="cls-2" d="M1576.5,257.1c0-32.6,22.8-59,50.9-59s50.9,26.4,50.9,59"/>
          <line class="cls-2" x1="1576.5" y1="257.1" x2="1576.5" y2="295.9"/>
          <line class="cls-2" x1="1678.2" y1="257.1" x2="1678.2" y2="295.9"/>
        </g>
        <path d="M1680.3,540.9H14.4c-2.2,0-4-1.3-4-2.8s1.8-2.8,4-2.8h1665.9c2.2,0,4,1.3,4,2.8s-1.8,2.8-4,2.8Z"/>
        <path d="M89.2,487.5h-7.7v-34.9c0-1.3-1.3-2.3-2.8-2.3s-2.8,1-2.8,2.3v34.9h-7.7c-2.7,0-4.3,2.9-3,5.2l10.5,18.2c1.3,2.3,4.7,2.3,6,0l10.5-18.2c1.3-2.3-.3-5.2-3-5.2Z"/>
        <path d="M476.4,487.5h-7.7v-34.9c0-1.3-1.3-2.3-2.8-2.3s-2.8,1-2.8,2.3v34.9h-7.7c-2.7,0-4.3,2.9-3,5.2l10.5,18.2c1.3,2.3,4.7,2.3,6,0l10.5-18.2c1.3-2.3-.3-5.2-3-5.2Z"/>
        <path d="M863.5,487.5h-7.7v-34.9c0-1.3-1.3-2.3-2.8-2.3s-2.8,1-2.8,2.3v34.9h-7.7c-2.7,0-4.3,2.9-3,5.2l10.5,18.2c1.3,2.3,4.7,2.3,6,0l10.5-18.2c1.3-2.3-.3-5.2-3-5.2Z"/>
        <path d="M1250.7,487.5h-7.7v-34.9c0-1.3-1.3-2.3-2.8-2.3s-2.8,1-2.8,2.3v34.9h-7.7c-2.7,0-4.3,2.9-3,5.2l10.5,18.2c1.3,2.3,4.7,2.3,6,0l10.5-18.2c1.3-2.3-.3-5.2-3-5.2Z"/>
        <path d="M1637.9,487.5h-7.7v-34.9c0-1.3-1.3-2.3-2.8-2.3s-2.8,1-2.8,2.3v34.9h-7.7c-2.7,0-4.3,2.9-3,5.2l10.5,18.2c1.3,2.3,4.7,2.3,6,0l10.5-18.2c1.3-2.3-.3-5.2-3-5.2Z"/>
        <g class="cls-1">
          <g class="cls-1">
            <path d="M32.5,361.3l-2.2-7.1h-10.9l-2.2,7.1h-6.8l10.6-30.1h7.8l10.6,30.1h-6.9ZM26.7,341.9c-.1-.5-.3-1.1-.5-1.8-.2-.7-.4-1.5-.7-2.2-.2-.8-.4-1.4-.5-2-.1.6-.3,1.3-.6,2.1-.2.8-.5,1.6-.7,2.4-.2.7-.4,1.3-.5,1.6l-2.1,7h7.8l-2.2-7h0Z"/>
            <path d="M55.7,337.9c2.5,0,4.4.7,5.9,2s2.2,3.5,2.2,6.4v15h-6.3v-13.4c0-1.7-.3-2.9-.9-3.7-.6-.8-1.5-1.2-2.8-1.2-1.9,0-3.2.7-3.9,2s-1,3.2-1,5.6v10.8h-6.3v-22.9h4.8l.8,2.9h.3c.7-1.2,1.7-2,3-2.6,1.3-.5,2.6-.8,4.1-.8h0Z"/>
            <path d="M79.9,356.7c.7,0,1.4,0,2-.2.6-.1,1.3-.3,1.9-.5v4.7c-.7.3-1.5.5-2.5.7s-2.1.3-3.3.3-2.6-.2-3.7-.7c-1.1-.4-1.9-1.2-2.6-2.3-.6-1.1-.9-2.6-.9-4.6v-11h-3v-2.6l3.4-2.1,1.8-4.8h4v4.9h6.4v4.7h-6.4v11c0,.9.3,1.5.8,2,.5.4,1.2.7,2,.7v-.2Z"/>
            <path d="M101.3,337.9h1.1c.4,0,.8,0,1,.1l-.5,5.9c-.2,0-.5-.1-.9-.1h-1c-1.1,0-2.1.2-3.1.6s-1.8,1-2.4,1.8-.9,2-.9,3.4v11.7h-6.3v-22.9h4.7l.9,3.9h.3c.7-1.2,1.6-2.2,2.8-3,1.2-.8,2.5-1.3,4.1-1.3h.2Z"/>
            <path d="M116.1,337.9c3.1,0,5.4.7,7.1,2,1.6,1.3,2.5,3.4,2.5,6.1v15.3h-4.4l-1.2-3.1h-.2c-1,1.2-2,2.1-3.1,2.7s-2.6.8-4.5.8-3.7-.6-5.1-1.8c-1.3-1.2-2-3-2-5.5s.9-4.2,2.6-5.4c1.7-1.2,4.3-1.8,7.7-1.9h4v-1.1c0-1.2-.3-2.1-.9-2.6-.6-.6-1.5-.8-2.6-.8s-2.2.2-3.3.5c-1.1.3-2.1.7-3.2,1.2l-2.1-4.2c1.2-.6,2.6-1.1,4.1-1.5s3.1-.5,4.7-.5v-.2ZM117,350.8c-2,0-3.4.4-4.2,1.1-.8.7-1.2,1.6-1.2,2.6s.3,1.6.8,2,1.3.6,2.2.6c1.3,0,2.5-.4,3.4-1.2.9-.8,1.4-1.9,1.4-3.4v-1.9h-2.4v.2Z"/>
            <path d="M139.5,337.9c2.8,0,5,1.1,6.6,3.4h.2l.5-2.9h5.3v23c0,3.3-1,5.8-2.9,7.5s-4.8,2.6-8.6,2.6-3.1,0-4.5-.3c-1.4-.2-2.7-.5-4.1-1v-5c2.8,1.2,5.8,1.8,8.9,1.8s4.8-1.7,4.8-5.2v-2c0-.5,0-1,.1-1.3h-.2c-.8,1.2-1.7,2.1-2.8,2.6-1.1.5-2.3.8-3.7.8-2.7,0-4.8-1-6.4-3.1-1.5-2.1-2.3-5-2.3-8.7s.8-6.7,2.4-8.8c1.6-2.1,3.7-3.1,6.5-3.1l.2-.3ZM141.5,343c-2.9,0-4.4,2.3-4.4,6.9s1.5,6.8,4.5,6.8,2.8-.5,3.5-1.4c.8-.9,1.2-2.5,1.2-4.8v-.8c0-2.5-.4-4.2-1.1-5.3-.8-1.1-2-1.6-3.7-1.6v.2Z"/>
          </g>
        </g>
        <g class="cls-1">
          <g class="cls-1">
            <path d="M388.5,331.3c4,0,7,.6,9.1,1.7s3.1,3.1,3.1,5.9-.4,3.1-1.2,4.3c-.8,1.2-1.9,1.9-3.4,2.1v.2c1,.2,1.9.5,2.7,1s1.5,1.2,1.9,2.2c.5,1,.7,2.2.7,3.8,0,2.7-1,4.8-2.9,6.4-2,1.5-4.6,2.3-8.1,2.3h-11.2v-30h9.3ZM389.2,343.2c1.8,0,3.1-.3,3.8-.9s1.1-1.4,1.1-2.6-.4-2-1.3-2.5c-.8-.5-2.2-.8-4-.8h-3.4v6.7h3.8ZM385.5,348.2v7.8h4.2c1.9,0,3.2-.4,4-1.1s1.1-1.7,1.1-3-.4-2-1.2-2.7-2.2-1-4.2-1h-3.9,0Z"/>
            <path d="M416.3,337.9c3.2,0,5.7.9,7.5,2.7,1.8,1.8,2.8,4.4,2.8,7.7v3h-14.8c0,1.8.6,3.2,1.6,4.2s2.4,1.5,4.1,1.5,2.8-.1,4-.4,2.4-.7,3.7-1.4v4.8c-1.1.6-2.3,1-3.5,1.2-1.2.3-2.8.4-4.5.4s-4.3-.4-6.1-1.3-3.1-2.1-4.2-3.9c-1-1.7-1.5-3.9-1.5-6.6s.5-4.9,1.4-6.7c.9-1.8,2.2-3.1,3.8-4s3.5-1.3,5.7-1.3h0ZM416.4,342.4c-1.2,0-2.2.4-3,1.2-.8.8-1.3,2-1.4,3.7h8.8c0-1.4-.4-2.6-1.1-3.5-.7-.9-1.8-1.4-3.3-1.4h0Z"/>
            <path d="M447.7,354.5c0,2.3-.8,4.1-2.5,5.4-1.6,1.2-4.1,1.9-7.3,1.9s-3-.1-4.1-.3c-1.1-.2-2.3-.6-3.4-1v-5.2c1.2.6,2.6,1,4,1.4s2.7.5,3.8.5,2.1-.2,2.6-.5c.5-.4.8-.8.8-1.4s0-.7-.3-1-.7-.7-1.4-1.1-1.8-.9-3.3-1.5c-1.4-.6-2.6-1.2-3.5-1.8-.9-.6-1.6-1.3-2.1-2.2-.4-.9-.7-1.9-.7-3.2,0-2.1.8-3.7,2.5-4.8,1.7-1.1,3.8-1.6,6.6-1.6s2.8.1,4.1.4,2.6.7,4,1.4l-1.9,4.5c-1.1-.5-2.2-.9-3.2-1.2-1-.3-2-.5-3.1-.5-1.8,0-2.8.5-2.8,1.5s0,.7.4,1c.2.3.7.6,1.4.9s1.7.8,3,1.3,2.4,1.1,3.4,1.7,1.7,1.3,2.2,2.1c.5.9.8,2,.8,3.3h0Z"/>
            <path d="M461.9,361.7c-3.4,0-6.1-.9-7.9-2.8-1.9-1.9-2.8-4.9-2.8-8.9s.5-5.1,1.4-6.8c1-1.8,2.3-3.1,4-3.9s3.6-1.3,5.9-1.3,2.9.2,4.1.5c1.2.3,2.2.7,3,1.1l-1.8,4.8c-1-.4-1.9-.7-2.8-1-.9-.3-1.7-.4-2.5-.4-3.2,0-4.9,2.3-4.9,6.9s.4,4,1.3,5.1c.9,1.1,2.1,1.6,3.6,1.6s2.5-.2,3.5-.5c1-.4,2-.8,2.9-1.4v5.3c-1,.6-2,1.1-3,1.3-1,.3-2.4.4-4,.4h0Z"/>
            <path d="M480.4,335.9c0,1.1,0,2.2,0,3.2,0,1,0,1.8-.2,2.2h.3c.7-1.2,1.7-2,2.8-2.6,1.1-.5,2.4-.8,3.8-.8,2.5,0,4.5.7,6,2s2.2,3.5,2.2,6.4v15h-6.3v-13.4c0-3.3-1.2-5-3.7-5s-3.2.7-3.9,2-1.1,3.2-1.1,5.6v10.8h-6.3v-31.9h6.3v6.5h.2Z"/>
            <path d="M511.2,337.9c3.2,0,5.7.9,7.5,2.7,1.8,1.8,2.8,4.4,2.8,7.7v3h-14.8c0,1.8.6,3.2,1.6,4.2s2.4,1.5,4.1,1.5,2.8-.1,4-.4,2.4-.7,3.7-1.4v4.8c-1.1.6-2.3,1-3.5,1.2-1.2.3-2.8.4-4.5.4s-4.3-.4-6.1-1.3-3.1-2.1-4.2-3.9c-1-1.7-1.5-3.9-1.5-6.6s.5-4.9,1.4-6.7c.9-1.8,2.2-3.1,3.8-4s3.5-1.3,5.7-1.3h0ZM511.3,342.4c-1.2,0-2.2.4-3,1.2-.8.8-1.3,2-1.4,3.7h8.8c0-1.4-.4-2.6-1.1-3.5-.7-.9-1.8-1.4-3.3-1.4h0Z"/>
            <path d="M529.7,329.4c.9,0,1.7.2,2.4.7.7.4,1,1.2,1,2.4s-.3,1.9-1,2.4c-.7.4-1.5.7-2.4.7s-1.8-.2-2.4-.7c-.7-.4-1-1.2-1-2.4s.3-2,1-2.4,1.5-.7,2.4-.7ZM532.9,338.4v22.9h-6.3v-22.9h6.3Z"/>
            <path d="M546.7,361.7c-2.5,0-4.6-1-6.2-3-1.6-2-2.4-4.9-2.4-8.8s.8-6.9,2.4-8.9c1.6-2,3.8-3,6.4-3s3,.3,4.1,1c1.1.6,1.9,1.4,2.5,2.4h.2c0-.4-.2-1.1-.3-2s-.2-1.7-.2-2.6v-7.3h6.3v31.9h-4.8l-1.2-3h-.3c-.6,1-1.4,1.8-2.5,2.4-1,.7-2.4,1-4,1h0ZM548.9,356.7c1.7,0,3-.5,3.7-1.5s1.1-2.6,1.1-4.6v-.7c0-2.2-.3-3.9-1-5.1s-2-1.8-3.8-1.8-2.5.6-3.2,1.8c-.8,1.2-1.2,2.9-1.2,5.1s.4,3.9,1.2,5.1c.8,1.1,1.9,1.7,3.3,1.7h0Z"/>
          </g>
        </g>
        <g class="cls-1">
          <g class="cls-1">
            <path d="M589.3,731.7h-6.3v-20.2c0-1.2,0-2.2,0-3.1,0,.2-.4.5-.9.9s-.9.8-1.3,1.2l-3.4,2.8-3.1-3.8,9.7-7.7h5.2v30h0Z"/>
            <path d="M623.4,731.7l-7.2-23.5h-.2c0,.6,0,1.4,0,2.5,0,1.1,0,2.3.2,3.6v17.4h-5.7v-30h8.7l7.1,22.9h0l7.5-22.9h8.7v30h-5.9v-17.5c0-1.3,0-2.4,0-3.5,0-1.1,0-1.9,0-2.5h-.2l-7.7,23.5h-5.8.1Z"/>
            <path d="M670.7,720.2c0,3.8-1,6.7-3,8.8s-4.7,3.1-8.2,3.1-4-.5-5.7-1.4-3-2.3-3.9-4.1c-1-1.8-1.4-3.9-1.4-6.5,0-3.8,1-6.7,3-8.8,2-2,4.7-3.1,8.2-3.1s4.1.5,5.7,1.4c1.7.9,3,2.3,3.9,4,1,1.8,1.4,3.9,1.4,6.4v.2ZM654.8,720.2c0,2.3.4,4,1.1,5.1.7,1.2,2,1.7,3.6,1.7s2.8-.6,3.6-1.7c.7-1.2,1.1-2.9,1.1-5.1s-.4-4-1.1-5.1c-.7-1.1-2-1.7-3.6-1.7s-2.8.6-3.6,1.7c-.7,1.1-1.1,2.8-1.1,5.1Z"/>
            <path d="M688.8,708.3c2.5,0,4.4.7,5.9,2s2.2,3.5,2.2,6.4v15h-6.3v-13.4c0-1.7-.3-2.9-.9-3.7-.6-.8-1.5-1.2-2.8-1.2-1.9,0-3.2.7-3.9,2s-1,3.2-1,5.6v10.8h-6.3v-22.9h4.8l.8,2.9h.3c.7-1.2,1.7-2,3-2.6,1.3-.5,2.6-.8,4.1-.8h.1Z"/>
            <path d="M712.8,708.3c3.1,0,5.4.7,7.1,2,1.6,1.3,2.5,3.4,2.5,6.1v15.3h-4.4l-1.2-3.1h-.2c-1,1.2-2,2.1-3.1,2.7-1.1.6-2.6.8-4.5.8s-3.7-.6-5.1-1.8c-1.3-1.2-2-3-2-5.5s.9-4.2,2.6-5.4c1.7-1.2,4.3-1.8,7.7-1.9h4v-1.1c0-1.2-.3-2.1-.9-2.6-.6-.6-1.5-.8-2.6-.8s-2.2.2-3.3.5-2.1.7-3.2,1.2l-2.1-4.2c1.2-.6,2.6-1.1,4.1-1.5s3.1-.5,4.7-.5v-.2ZM713.7,721.2c-2,0-3.4.4-4.2,1.1-.8.7-1.2,1.6-1.2,2.6s.3,1.6.8,2,1.3.6,2.2.6c1.3,0,2.5-.4,3.4-1.2s1.4-1.9,1.4-3.4v-1.9h-2.4v.2Z"/>
            <path d="M738.4,727.1c.7,0,1.4,0,2-.2.6,0,1.3-.3,1.9-.5v4.7c-.7.3-1.5.5-2.5.7s-2.1.3-3.3.3-2.6-.2-3.7-.7c-1.1-.4-1.9-1.2-2.6-2.3-.6-1.1-.9-2.6-.9-4.6v-11h-3v-2.6l3.4-2.1,1.8-4.8h4v4.9h6.4v4.7h-6.4v11c0,.9.3,1.5.8,2,.5.4,1.2.7,2,.7v-.2Z"/>
          </g>
        </g>
        <g class="cls-1">
          <g class="cls-1">
            <path d="M620.8,596.9h-6.3v-30h17.2v5.2h-10.9v7.7h10.2v5.2h-10.2v11.8h0Z"/>
            <path d="M649.9,573.5h1.1c.4,0,.8,0,1,0l-.5,5.9c-.2,0-.5,0-.9,0h-1c-1.1,0-2.1.2-3.1.6-1,.4-1.8,1-2.4,1.8-.6.8-.9,2-.9,3.4v11.7h-6.3v-22.9h4.7l.9,3.9h.3c.7-1.2,1.6-2.2,2.8-3s2.5-1.3,4.1-1.3h.2Z"/>
            <path d="M659.4,565c.9,0,1.7.2,2.4.7.7.4,1,1.2,1,2.4s-.3,1.9-1,2.4c-.7.4-1.5.7-2.4.7s-1.8-.2-2.4-.7c-.7-.4-1-1.2-1-2.4s.3-2,1-2.4,1.5-.7,2.4-.7ZM662.5,574v22.9h-6.3v-22.9h6.3Z"/>
            <path d="M685,590.1c0,2.3-.8,4.1-2.5,5.4-1.6,1.2-4.1,1.9-7.3,1.9s-3,0-4.1-.3-2.3-.6-3.4-1v-5.2c1.2.6,2.6,1,4,1.4s2.7.5,3.8.5,2.1-.2,2.6-.5c.5-.4.8-.8.8-1.4s0-.7-.3-1-.7-.7-1.4-1.1c-.7-.4-1.8-.9-3.3-1.5-1.4-.6-2.6-1.2-3.5-1.8s-1.6-1.3-2.1-2.2c-.4-.9-.7-1.9-.7-3.2,0-2.1.8-3.7,2.5-4.8s3.8-1.6,6.6-1.6,2.8,0,4.1.4c1.3.3,2.6.7,4,1.4l-1.9,4.5c-1.1-.5-2.2-.9-3.2-1.2s-2-.5-3.1-.5c-1.8,0-2.8.5-2.8,1.5s0,.7.4,1c.2.3.7.6,1.4.9.7.3,1.7.8,3,1.3s2.4,1.1,3.4,1.7c1,.6,1.7,1.3,2.2,2.1.5.9.8,2,.8,3.3h0Z"/>
            <path d="M699.5,592.3c.7,0,1.4,0,2-.2.6,0,1.3-.3,1.9-.5v4.7c-.7.3-1.5.5-2.5.7s-2.1.3-3.3.3-2.6-.2-3.7-.7c-1.1-.4-1.9-1.2-2.6-2.3-.6-1.1-.9-2.6-.9-4.6v-11h-3v-2.6l3.4-2.1,1.8-4.8h4v4.9h6.4v4.7h-6.4v11c0,.9.3,1.5.8,2,.5.4,1.2.7,2,.7v-.2Z"/>
          </g>
        </g>
        <path d="M653,679.6c0-31.3-12-38.2-44.2-37.7l-84.7.9c-49.7.5-61.2-23.9-61.2-53.8v-2.3h8.3v1.4c0,27.6,8.3,46.9,52,46.5l82.8-.9c33.6-.5,48.3,6,52,26.7,4.6-18.9,14.7-27.2,52.5-26.7l88.4.9c39.6.5,45.6-21.6,45.6-45.6v-2.3h8.3v2.3c0,29.9-7.4,54.3-56.1,53.8l-89.7-.9c-34.5-.5-44.2,11-44.2,37.7h-9.8Z"/>
        <path d="M1428.1,679.6c0-31.3-12-38.2-44.2-37.7l-84.7.9c-49.7.5-61.2-23.9-61.2-53.8v-2.3h8.3v1.4c0,27.6,8.3,46.9,52,46.5l82.8-.9c33.6-.5,48.3,6,52,26.7,4.6-18.9,14.7-27.2,52.5-26.7l88.4.9c39.6.5,45.6-21.6,45.6-45.6v-2.3h8.3v2.3c0,29.9-7.4,54.3-56.1,53.8l-89.7-.9c-34.5-.5-44.2,11-44.2,37.7h-9.8Z"/>
        <g class="cls-1">
          <g class="cls-1">
            <path d="M749.7,331.3l-7.6,30h-7.2l-4.1-15.8c0-.3-.2-.8-.3-1.4s-.3-1.3-.4-2c-.2-.7-.3-1.4-.4-2.1,0-.7-.2-1.2-.3-1.5,0,.4,0,.9-.2,1.5,0,.7-.3,1.3-.4,2.1s-.3,1.4-.4,2-.3,1.1-.3,1.4l-4,15.7h-7.2l-7.6-30h6.3l3.8,16.4c.2.6.3,1.5.5,2.4.2,1,.4,2,.5,2.9.2,1,.3,1.8.4,2.5,0-.7.2-1.5.4-2.5s.3-1.9.5-2.8.3-1.6.5-2.1l4.4-16.8h6l4.4,16.8c0,.5.3,1.2.5,2.1s.4,1.9.5,2.9c.2,1,.3,1.8.4,2.5,0-.7.2-1.5.4-2.5s.4-1.9.6-2.9c.2-1,.4-1.8.5-2.4l3.8-16.4h6.3-.3Z"/>
            <path d="M756.1,329.4c.9,0,1.7.2,2.4.7.7.4,1,1.2,1,2.4s-.3,1.9-1,2.4c-.7.4-1.5.7-2.4.7s-1.8-.2-2.4-.7c-.7-.4-1-1.2-1-2.4s.3-2,1-2.4,1.5-.7,2.4-.7ZM759.2,338.4v22.9h-6.3v-22.9h6.3Z"/>
            <path d="M775.2,337.9c3.2,0,5.7.9,7.5,2.7,1.8,1.8,2.8,4.4,2.8,7.7v3h-14.8c0,1.8.6,3.2,1.6,4.2s2.4,1.5,4.1,1.5,2.8-.1,4-.4,2.4-.7,3.7-1.4v4.8c-1.1.6-2.3,1-3.5,1.2-1.2.3-2.8.4-4.5.4s-4.3-.4-6.1-1.3-3.1-2.1-4.2-3.9c-1-1.7-1.5-3.9-1.5-6.6s.5-4.9,1.4-6.7c.9-1.8,2.2-3.1,3.8-4s3.5-1.3,5.7-1.3h0ZM775.3,342.4c-1.2,0-2.2.4-3,1.2-.8.8-1.3,2-1.4,3.7h8.8c0-1.4-.4-2.6-1.1-3.5-.7-.9-1.8-1.4-3.3-1.4h0Z"/>
            <path d="M797.9,361.7c-2.5,0-4.6-1-6.2-3-1.6-2-2.4-4.9-2.4-8.8s.8-6.9,2.4-8.9c1.6-2,3.8-3,6.4-3s3,.3,4.1,1c1.1.6,1.9,1.4,2.5,2.4h.2c0-.4-.2-1.1-.3-2s-.2-1.7-.2-2.6v-7.3h6.3v31.9h-4.8l-1.2-3h-.3c-.6,1-1.4,1.8-2.5,2.4-1,.7-2.4,1-4,1h0ZM800.1,356.7c1.7,0,3-.5,3.7-1.5s1.1-2.6,1.1-4.6v-.7c0-2.2-.3-3.9-1-5.1s-2-1.8-3.8-1.8-2.5.6-3.2,1.8c-.8,1.2-1.2,2.9-1.2,5.1s.4,3.9,1.2,5.1c.8,1.1,1.9,1.7,3.3,1.7h0Z"/>
            <path d="M826.7,337.9c3.2,0,5.7.9,7.5,2.7,1.8,1.8,2.8,4.4,2.8,7.7v3h-14.8c0,1.8.6,3.2,1.6,4.2s2.4,1.5,4.1,1.5,2.8-.1,4-.4,2.4-.7,3.7-1.4v4.8c-1.1.6-2.3,1-3.5,1.2-1.2.3-2.8.4-4.5.4s-4.3-.4-6.1-1.3-3.1-2.1-4.2-3.9c-1-1.7-1.5-3.9-1.5-6.6s.5-4.9,1.4-6.7c.9-1.8,2.2-3.1,3.8-4s3.5-1.3,5.7-1.3h0ZM826.7,342.4c-1.2,0-2.2.4-3,1.2-.8.8-1.3,2-1.4,3.7h8.8c0-1.4-.4-2.6-1.1-3.5s-1.8-1.4-3.3-1.4h0Z"/>
            <path d="M854.8,337.9h1.1c.4,0,.8,0,1,.1l-.5,5.9c-.2,0-.5-.1-.9-.1h-1c-1.1,0-2.1.2-3.1.6s-1.8,1-2.4,1.8-.9,2-.9,3.4v11.7h-6.3v-22.9h4.7l.9,3.9h.3c.7-1.2,1.6-2.2,2.8-3s2.5-1.3,4.1-1.3h.2Z"/>
            <path d="M877.1,354.5c0,2.3-.8,4.1-2.5,5.4-1.6,1.2-4.1,1.9-7.3,1.9s-3-.1-4.1-.3c-1.1-.2-2.3-.6-3.4-1v-5.2c1.2.6,2.6,1,4,1.4s2.7.5,3.8.5,2.1-.2,2.6-.5c.5-.4.8-.8.8-1.4s0-.7-.3-1c-.2-.3-.7-.7-1.4-1.1-.7-.4-1.8-.9-3.3-1.5-1.4-.6-2.6-1.2-3.5-1.8-.9-.6-1.6-1.3-2.1-2.2-.4-.9-.7-1.9-.7-3.2,0-2.1.8-3.7,2.5-4.8,1.7-1.1,3.8-1.6,6.6-1.6s2.8.1,4.1.4,2.6.7,4,1.4l-1.9,4.5c-1.1-.5-2.2-.9-3.2-1.2-1-.3-2-.5-3.1-.5-1.8,0-2.8.5-2.8,1.5s0,.7.4,1,.7.6,1.4.9c.7.3,1.7.8,3,1.3s2.4,1.1,3.4,1.7,1.7,1.3,2.2,2.1c.5.9.8,2,.8,3.3h0Z"/>
            <path d="M894.7,337.9c2.6,0,4.7,1,6.3,3s2.4,4.9,2.4,8.8-.8,6.9-2.5,8.9-3.8,3-6.3,3-3-.3-3.9-.9c-1-.6-1.8-1.3-2.4-2h-.3c.2,1.2.3,2.3.3,3.4v9.2h-6.3v-33h5.1l.9,3h.3c.6-.9,1.4-1.7,2.5-2.4,1-.7,2.4-1,4-1h0ZM892.7,342.9c-1.6,0-2.8.5-3.4,1.5s-1,2.5-1.1,4.6v.7c0,2.2.3,3.9,1,5.1s1.9,1.8,3.6,1.8,2.5-.6,3.2-1.8c.7-1.2,1-2.9,1-5.1,0-4.5-1.4-6.8-4.3-6.8h0Z"/>
            <path d="M921.4,337.9h1.1c.4,0,.8,0,1,.1l-.5,5.9c-.2,0-.5-.1-.9-.1h-1c-1.1,0-2.1.2-3.1.6s-1.8,1-2.4,1.8-.9,2-.9,3.4v11.7h-6.3v-22.9h4.7l.9,3.9h.3c.7-1.2,1.6-2.2,2.8-3s2.5-1.3,4.1-1.3h.2Z"/>
            <path d="M948.7,338.4v22.9h-4.8l-.8-2.9h-.3c-.7,1.2-1.7,2-3,2.6-1.3.5-2.6.8-4.1.8-2.5,0-4.4-.7-5.9-2s-2.2-3.5-2.2-6.4v-15h6.3v13.4c0,1.6.3,2.9.9,3.7s1.5,1.3,2.8,1.3c1.9,0,3.2-.7,3.9-2,.7-1.3,1.1-3.2,1.1-5.6v-10.8h6.3-.2Z"/>
            <path d="M964.5,361.7c-3.4,0-6.1-.9-7.9-2.8-1.9-1.9-2.8-4.9-2.8-8.9s.5-5.1,1.4-6.8c1-1.8,2.3-3.1,4-3.9s3.6-1.3,5.9-1.3,2.9.2,4.1.5,2.2.7,3,1.1l-1.8,4.8c-1-.4-1.9-.7-2.8-1s-1.7-.4-2.5-.4c-3.2,0-4.9,2.3-4.9,6.9s.4,4,1.3,5.1,2.1,1.6,3.6,1.6,2.5-.2,3.5-.5c1-.4,2-.8,2.9-1.4v5.3c-1,.6-2,1.1-3,1.3-1.1.3-2.4.4-4,.4h0Z"/>
            <path d="M983.1,335.9c0,1.1,0,2.2,0,3.2s0,1.8-.2,2.2h.3c.7-1.2,1.7-2,2.8-2.6s2.4-.8,3.8-.8c2.5,0,4.5.7,6,2s2.2,3.5,2.2,6.4v15h-6.3v-13.4c0-3.3-1.2-5-3.7-5s-3.2.7-3.9,2c-.7,1.3-1.1,3.2-1.1,5.6v10.8h-6.3v-31.9h6.3v6.5h.2Z"/>
          </g>
        </g>
        <g class="cls-1">
          <g class="cls-1">
            <path d="M1118.6,331.3l-7.6,30h-7.2l-4.1-15.8c0-.3-.2-.8-.3-1.4s-.3-1.3-.4-2c-.2-.7-.3-1.4-.4-2.1s-.2-1.2-.3-1.5c0,.4,0,.9-.2,1.5,0,.7-.3,1.3-.4,2.1,0,.7-.3,1.4-.4,2s-.3,1.1-.3,1.4l-4,15.7h-7.2l-7.6-30h6.3l3.8,16.4c.2.6.3,1.5.5,2.4.2,1,.4,2,.5,2.9.2,1,.3,1.8.4,2.5,0-.7.2-1.5.4-2.5.2-1,.3-1.9.5-2.8s.3-1.6.5-2.1l4.4-16.8h6l4.4,16.8c0,.5.3,1.2.5,2.1s.4,1.9.5,2.9c.2,1,.3,1.8.4,2.5,0-.7.2-1.5.4-2.5s.4-1.9.6-2.9.4-1.8.5-2.4l3.8-16.4h6.3-.3Z"/>
            <path d="M1125,329.4c.9,0,1.7.2,2.4.7.7.4,1,1.2,1,2.4s-.3,1.9-1,2.4c-.7.4-1.5.7-2.4.7s-1.8-.2-2.4-.7c-.7-.4-1-1.2-1-2.4s.3-2,1-2.4,1.5-.7,2.4-.7ZM1128.1,338.4v22.9h-6.3v-22.9h6.3Z"/>
            <path d="M1144.1,337.9c3.2,0,5.7.9,7.5,2.7,1.8,1.8,2.8,4.4,2.8,7.7v3h-14.8c0,1.8.6,3.2,1.6,4.2s2.4,1.5,4.1,1.5,2.8-.1,4-.4,2.5-.7,3.7-1.4v4.8c-1.1.6-2.3,1-3.5,1.2-1.2.3-2.8.4-4.5.4s-4.3-.4-6.1-1.3c-1.8-.9-3.1-2.1-4.2-3.9-1-1.7-1.5-3.9-1.5-6.6s.5-4.9,1.4-6.7c.9-1.8,2.2-3.1,3.8-4,1.6-.9,3.5-1.3,5.7-1.3h0ZM1144.2,342.4c-1.2,0-2.2.4-3,1.2s-1.3,2-1.4,3.7h8.8c0-1.4-.4-2.6-1.1-3.5s-1.8-1.4-3.3-1.4h0Z"/>
            <path d="M1166.8,361.7c-2.5,0-4.6-1-6.2-3s-2.4-4.9-2.4-8.8.8-6.9,2.4-8.9,3.8-3,6.4-3,3,.3,4.1,1c1.1.6,1.9,1.4,2.5,2.4h.2c0-.4-.2-1.1-.3-2,0-.9-.2-1.7-.2-2.6v-7.3h6.3v31.9h-4.8l-1.2-3h-.3c-.6,1-1.4,1.8-2.5,2.4-1,.7-2.4,1-4,1h0ZM1169,356.7c1.7,0,3-.5,3.7-1.5s1.1-2.6,1.1-4.6v-.7c0-2.2-.3-3.9-1-5.1s-2-1.8-3.8-1.8-2.5.6-3.2,1.8c-.8,1.2-1.2,2.9-1.2,5.1s.4,3.9,1.2,5.1c.8,1.1,1.9,1.7,3.3,1.7h0Z"/>
            <path d="M1195.6,337.9c3.2,0,5.7.9,7.5,2.7,1.8,1.8,2.8,4.4,2.8,7.7v3h-14.8c0,1.8.6,3.2,1.6,4.2s2.4,1.5,4.1,1.5,2.8-.1,4-.4,2.4-.7,3.7-1.4v4.8c-1.1.6-2.3,1-3.5,1.2-1.2.3-2.8.4-4.5.4s-4.3-.4-6.1-1.3c-1.8-.9-3.2-2.1-4.2-3.9-1-1.7-1.5-3.9-1.5-6.6s.5-4.9,1.4-6.7c.9-1.8,2.2-3.1,3.8-4,1.6-.9,3.5-1.3,5.7-1.3h0ZM1195.6,342.4c-1.2,0-2.2.4-3,1.2-.8.8-1.3,2-1.4,3.7h8.8c0-1.4-.4-2.6-1.1-3.5s-1.8-1.4-3.3-1.4h0Z"/>
            <path d="M1223.7,337.9h1.1c.4,0,.8,0,1,.1l-.5,5.9c-.2,0-.5-.1-.9-.1h-1c-1.1,0-2.1.2-3.1.6s-1.8,1-2.4,1.8-.9,2-.9,3.4v11.7h-6.3v-22.9h4.7l.9,3.9h.3c.7-1.2,1.6-2.2,2.8-3,1.2-.8,2.5-1.3,4.1-1.3h.2Z"/>
            <path d="M1246,354.5c0,2.3-.8,4.1-2.5,5.4-1.6,1.2-4.1,1.9-7.3,1.9s-3-.1-4.1-.3c-1.1-.2-2.3-.6-3.4-1v-5.2c1.2.6,2.6,1,4,1.4s2.7.5,3.8.5,2.1-.2,2.6-.5c.5-.4.8-.8.8-1.4s0-.7-.3-1c-.2-.3-.7-.7-1.4-1.1-.7-.4-1.8-.9-3.3-1.5-1.4-.6-2.6-1.2-3.5-1.8-.9-.6-1.6-1.3-2.1-2.2-.4-.9-.7-1.9-.7-3.2,0-2.1.8-3.7,2.5-4.8,1.7-1.1,3.8-1.6,6.6-1.6s2.8.1,4.1.4c1.3.3,2.6.7,4,1.4l-1.9,4.5c-1.1-.5-2.2-.9-3.2-1.2-1-.3-2-.5-3.1-.5-1.8,0-2.8.5-2.8,1.5s0,.7.4,1c.2.3.7.6,1.4.9.7.3,1.7.8,3,1.3s2.5,1.1,3.4,1.7c1,.6,1.7,1.3,2.2,2.1.5.9.8,2,.8,3.3h0Z"/>
            <path d="M1263.6,337.9c2.6,0,4.7,1,6.3,3,1.6,2,2.4,4.9,2.4,8.8s-.8,6.9-2.5,8.9-3.8,3-6.3,3-3-.3-3.9-.9c-1-.6-1.8-1.3-2.4-2h-.3c.2,1.2.3,2.3.3,3.4v9.2h-6.3v-33h5.1l.9,3h.3c.6-.9,1.4-1.7,2.5-2.4,1-.7,2.4-1,4-1h0ZM1261.6,342.9c-1.6,0-2.8.5-3.4,1.5-.7,1-1,2.5-1.1,4.6v.7c0,2.2.3,3.9,1,5.1s1.9,1.8,3.6,1.8,2.5-.6,3.2-1.8c.7-1.2,1-2.9,1-5.1,0-4.5-1.4-6.8-4.3-6.8h0Z"/>
            <path d="M1290.3,337.9h1.1c.4,0,.8,0,1,.1l-.5,5.9c-.2,0-.5-.1-.9-.1h-1c-1.1,0-2.1.2-3.1.6s-1.8,1-2.4,1.8-.9,2-.9,3.4v11.7h-6.3v-22.9h4.7l.9,3.9h.3c.7-1.2,1.6-2.2,2.8-3,1.2-.8,2.5-1.3,4.1-1.3h.2Z"/>
            <path d="M1317.6,338.4v22.9h-4.8l-.8-2.9h-.3c-.7,1.2-1.7,2-3,2.6s-2.6.8-4.1.8c-2.5,0-4.4-.7-5.9-2s-2.2-3.5-2.2-6.4v-15h6.3v13.4c0,1.6.3,2.9.9,3.7s1.5,1.3,2.8,1.3c1.9,0,3.2-.7,3.9-2,.7-1.3,1-3.2,1-5.6v-10.8h6.3-.1Z"/>
            <path d="M1333.4,361.7c-3.4,0-6.1-.9-7.9-2.8s-2.8-4.9-2.8-8.9.5-5.1,1.4-6.8c1-1.8,2.3-3.1,4-3.9s3.6-1.3,5.9-1.3,2.9.2,4.1.5,2.2.7,3,1.1l-1.8,4.8c-1-.4-1.9-.7-2.8-1s-1.7-.4-2.5-.4c-3.2,0-4.9,2.3-4.9,6.9s.4,4,1.3,5.1,2.1,1.6,3.6,1.6,2.5-.2,3.5-.5c1-.4,2-.8,2.9-1.4v5.3c-1,.6-2,1.1-3,1.3-1.1.3-2.4.4-4,.4h0Z"/>
            <path d="M1352,335.9c0,1.1,0,2.2,0,3.2s0,1.8-.2,2.2h.3c.7-1.2,1.7-2,2.8-2.6s2.4-.8,3.8-.8c2.5,0,4.5.7,6,2s2.2,3.5,2.2,6.4v15h-6.3v-13.4c0-3.3-1.2-5-3.7-5s-3.2.7-3.9,2c-.7,1.3-1.1,3.2-1.1,5.6v10.8h-6.3v-31.9h6.3v6.5h.2Z"/>
            <path d="M1389.3,354.5c0,2.3-.8,4.1-2.5,5.4-1.6,1.2-4.1,1.9-7.3,1.9s-3-.1-4.1-.3c-1.1-.2-2.3-.6-3.4-1v-5.2c1.2.6,2.6,1,4,1.4s2.7.5,3.8.5,2.1-.2,2.6-.5c.5-.4.8-.8.8-1.4s0-.7-.3-1c-.2-.3-.7-.7-1.4-1.1-.7-.4-1.8-.9-3.3-1.5-1.4-.6-2.6-1.2-3.5-1.8-.9-.6-1.6-1.3-2.1-2.2-.4-.9-.7-1.9-.7-3.2,0-2.1.8-3.7,2.5-4.8,1.7-1.1,3.8-1.6,6.6-1.6s2.8.1,4.1.4c1.3.3,2.6.7,4,1.4l-1.9,4.5c-1.1-.5-2.2-.9-3.2-1.2-1-.3-2-.5-3.1-.5-1.8,0-2.8.5-2.8,1.5s0,.7.4,1c.2.3.7.6,1.4.9s1.7.8,3,1.3,2.5,1.1,3.4,1.7c1,.6,1.7,1.3,2.2,2.1.5.9.8,2,.8,3.3h0Z"/>
            <path d="M1392.2,352.6v-5.1h11v5.1h-11Z"/>
          </g>
          <g class="cls-1">
            <path d="M1157.9,387.2v2.6c0,.8,0,1.5-.2,2h.3c.6-1,1.4-1.8,2.5-2.4,1-.7,2.4-1,4-1,2.6,0,4.7,1,6.3,3s2.4,4.9,2.4,8.8-.8,6.9-2.4,8.9-3.8,3-6.4,3-3-.3-4-.9-1.8-1.3-2.4-2h-.4l-1,2.5h-4.8v-31.9h6.3v7.4h-.2ZM1162.4,393.3c-1.6,0-2.8.5-3.4,1.5s-1,2.5-1.1,4.6v.7c0,2.2.3,3.9,1,5.1s1.9,1.8,3.6,1.8,2.3-.6,3.1-1.8c.8-1.2,1.1-2.9,1.1-5.1s-.4-3.9-1.2-5.1c-.8-1.1-1.8-1.7-3.1-1.7Z"/>
            <path d="M1187.7,388.3c3.2,0,5.7.9,7.5,2.7,1.8,1.8,2.8,4.4,2.8,7.7v3h-14.8c0,1.8.6,3.2,1.6,4.2s2.4,1.5,4.1,1.5,2.8-.1,4-.4,2.5-.7,3.7-1.4v4.8c-1.1.6-2.3,1-3.5,1.2-1.2.3-2.8.4-4.5.4s-4.3-.4-6.1-1.3c-1.8-.9-3.1-2.1-4.2-3.9-1-1.7-1.5-3.9-1.5-6.6s.5-4.9,1.4-6.7c.9-1.8,2.2-3.1,3.8-4,1.6-.9,3.5-1.3,5.7-1.3h0ZM1187.8,392.8c-1.2,0-2.2.4-3,1.2s-1.3,2-1.4,3.7h8.8c0-1.4-.4-2.6-1.1-3.5s-1.8-1.4-3.3-1.4h0Z"/>
            <path d="M1219.1,404.9c0,2.3-.8,4.1-2.5,5.4-1.6,1.2-4.1,1.9-7.3,1.9s-3-.1-4.1-.3c-1.1-.2-2.3-.6-3.4-1v-5.2c1.2.6,2.6,1,4,1.4s2.7.5,3.8.5,2.1-.2,2.6-.5c.5-.4.8-.8.8-1.4s0-.7-.3-1c-.2-.3-.7-.7-1.4-1.1-.7-.4-1.8-.9-3.3-1.5-1.4-.6-2.6-1.2-3.5-1.8-.9-.6-1.6-1.3-2.1-2.2-.4-.9-.7-1.9-.7-3.2,0-2.1.8-3.7,2.5-4.8,1.7-1.1,3.8-1.6,6.6-1.6s2.8.1,4.1.4c1.3.3,2.6.7,4,1.4l-1.9,4.5c-1.1-.5-2.2-.9-3.2-1.2-1-.3-2-.5-3.1-.5-1.8,0-2.8.5-2.8,1.5s0,.7.4,1c.2.3.7.6,1.4.9.7.3,1.7.8,3,1.3s2.5,1.1,3.4,1.7c1,.6,1.7,1.3,2.2,2.1.5.9.8,2,.8,3.3h0Z"/>
            <path d="M1233.3,412.1c-3.4,0-6.1-.9-7.9-2.8s-2.8-4.9-2.8-8.9.5-5.1,1.4-6.8c1-1.8,2.3-3.1,4-3.9s3.6-1.3,5.9-1.3,2.9.2,4.1.5,2.2.7,3,1.1l-1.8,4.8c-1-.4-1.9-.7-2.8-1s-1.7-.4-2.5-.4c-3.2,0-4.9,2.3-4.9,6.9s.4,4,1.3,5.1,2.1,1.6,3.6,1.6,2.5-.2,3.5-.5c1-.4,2-.8,2.9-1.4v5.3c-1,.6-2,1.1-3,1.3-1,.3-2.4.4-4,.4h0Z"/>
            <path d="M1251.8,386.3c0,1.1,0,2.2,0,3.2,0,1,0,1.8-.2,2.2h.3c.7-1.2,1.7-2,2.8-2.6,1.1-.5,2.4-.8,3.8-.8,2.5,0,4.5.7,6,2s2.2,3.5,2.2,6.4v15h-6.3v-13.4c0-3.3-1.2-5-3.7-5s-3.2.7-3.9,2c-.7,1.3-1.1,3.2-1.1,5.6v10.8h-6.3v-31.9h6.3v6.5h.2Z"/>
            <path d="M1282.6,388.3c3.2,0,5.7.9,7.5,2.7,1.8,1.8,2.8,4.4,2.8,7.7v3h-14.8c0,1.8.6,3.2,1.6,4.2s2.4,1.5,4.1,1.5,2.8-.1,4-.4,2.5-.7,3.7-1.4v4.8c-1.1.6-2.3,1-3.5,1.2-1.2.3-2.8.4-4.5.4s-4.3-.4-6.1-1.3c-1.8-.9-3.1-2.1-4.2-3.9-1-1.7-1.5-3.9-1.5-6.6s.5-4.9,1.4-6.7c.9-1.8,2.2-3.1,3.8-4,1.6-.9,3.5-1.3,5.7-1.3h0ZM1282.6,392.8c-1.2,0-2.2.4-3,1.2s-1.3,2-1.4,3.7h8.8c0-1.4-.4-2.6-1.1-3.5s-1.8-1.4-3.3-1.4h0Z"/>
            <path d="M1301.1,379.8c.9,0,1.7.2,2.4.7.7.4,1,1.2,1,2.4s-.3,1.9-1,2.4c-.7.4-1.5.7-2.4.7s-1.8-.2-2.4-.7c-.7-.4-1-1.2-1-2.4s.3-2,1-2.4,1.5-.7,2.4-.7ZM1304.2,388.8v22.9h-6.3v-22.9h6.3Z"/>
            <path d="M1318,412.1c-2.5,0-4.6-1-6.2-3s-2.4-4.9-2.4-8.8.8-6.9,2.4-8.9,3.8-3,6.4-3,3,.3,4.1,1c1.1.6,1.9,1.4,2.5,2.4h.2c0-.4-.2-1.1-.3-2,0-.9-.2-1.7-.2-2.6v-7.3h6.3v31.9h-4.8l-1.2-3h-.3c-.6,1-1.4,1.8-2.5,2.4-1,.7-2.4,1-4,1h0ZM1320.2,407.1c1.7,0,3-.5,3.7-1.5s1.1-2.6,1.1-4.6v-.7c0-2.2-.3-3.9-1-5.1s-2-1.8-3.8-1.8-2.5.6-3.2,1.8c-.8,1.2-1.2,2.9-1.2,5.1s.4,3.9,1.2,5.1c.8,1.1,1.9,1.7,3.3,1.7h0Z"/>
          </g>
        </g>
        <g class="cls-1">
          <g class="cls-1">
            <path d="M1596.5,361.3h-7.2l-7.9-12.6-2.7,1.9v10.7h-6.3v-30h6.3v13.7l1.3-1.8c.4-.6.8-1.2,1.3-1.8l8.1-10.2h7.1l-10.5,13.3,10.5,16.7h0Z"/>
            <path d="M1606,361.3h-6.3v-31.9h6.3v31.9Z"/>
            <path d="M1622,337.9c3.1,0,5.4.7,7.1,2,1.6,1.3,2.5,3.4,2.5,6.1v15.3h-4.4l-1.2-3.1h-.2c-1,1.2-2,2.1-3.1,2.7s-2.6.8-4.5.8-3.7-.6-5.1-1.8c-1.3-1.2-2-3-2-5.5s.9-4.2,2.6-5.4c1.7-1.2,4.3-1.8,7.7-1.9h4v-1.1c0-1.2-.3-2.1-.9-2.6-.6-.6-1.5-.8-2.6-.8s-2.2.2-3.3.5c-1.1.3-2.1.7-3.2,1.2l-2.1-4.2c1.2-.6,2.6-1.1,4.1-1.5s3.1-.5,4.7-.5v-.2ZM1622.9,350.8c-2,0-3.4.4-4.2,1.1-.8.7-1.2,1.6-1.2,2.6s.3,1.6.8,2c.6.4,1.3.6,2.2.6,1.3,0,2.5-.4,3.4-1.2.9-.8,1.4-1.9,1.4-3.4v-1.9h-2.4v.2Z"/>
            <path d="M1645.4,337.9c2.8,0,5,1.1,6.6,3.4h.2l.5-2.9h5.3v23c0,3.3-1,5.8-2.9,7.5s-4.8,2.6-8.6,2.6-3.1,0-4.5-.3c-1.4-.2-2.7-.5-4.1-1v-5c2.8,1.2,5.8,1.8,8.9,1.8s4.8-1.7,4.8-5.2v-2c0-.5,0-1,0-1.3h-.2c-.8,1.2-1.7,2.1-2.8,2.6-1.1.5-2.3.8-3.7.8-2.7,0-4.8-1-6.4-3.1-1.5-2.1-2.3-5-2.3-8.7s.8-6.7,2.4-8.8c1.6-2.1,3.7-3.1,6.5-3.1l.2-.3ZM1647.3,343c-2.9,0-4.4,2.3-4.4,6.9s1.5,6.8,4.5,6.8,2.8-.5,3.5-1.4c.8-.9,1.2-2.5,1.2-4.8v-.8c0-2.5-.4-4.2-1.1-5.3-.8-1.1-2-1.6-3.7-1.6v.2Z"/>
            <path d="M1674,337.9c3.2,0,5.7.9,7.5,2.7,1.8,1.8,2.8,4.4,2.8,7.7v3h-14.8c0,1.8.6,3.2,1.6,4.2s2.4,1.5,4.1,1.5,2.8-.1,4-.4,2.5-.7,3.7-1.4v4.8c-1.1.6-2.3,1-3.5,1.2-1.2.3-2.8.4-4.5.4s-4.3-.4-6.1-1.3c-1.8-.9-3.1-2.1-4.2-3.9-1-1.7-1.5-3.9-1.5-6.6s.5-4.9,1.4-6.7c.9-1.8,2.2-3.1,3.8-4,1.6-.9,3.5-1.3,5.7-1.3h0ZM1674,342.4c-1.2,0-2.2.4-3,1.2s-1.3,2-1.4,3.7h8.8c0-1.4-.4-2.6-1.1-3.5s-1.8-1.4-3.3-1.4h0Z"/>
          </g>
        </g>
        <g class="cls-1">
          <g class="cls-1">
            <path d="M1364.4,731.7h-6.3v-20.2c0-1.2,0-2.2,0-3.1,0,.2-.4.5-.9.9s-.9.8-1.3,1.2l-3.4,2.8-3.1-3.8,9.7-7.7h5.2v30h0Z"/>
            <path d="M1398.5,731.7l-7.2-23.5h-.2c0,.6,0,1.4,0,2.5,0,1.1,0,2.3.2,3.6v17.4h-5.7v-30h8.7l7.1,22.9h0l7.5-22.9h8.7v30h-5.9v-17.5c0-1.3,0-2.4,0-3.5,0-1.1,0-1.9,0-2.5h-.2l-7.7,23.5h-5.8.1Z"/>
            <path d="M1445.8,720.2c0,3.8-1,6.7-3,8.8s-4.7,3.1-8.2,3.1-4-.5-5.7-1.4-3-2.3-3.9-4.1c-1-1.8-1.4-3.9-1.4-6.5,0-3.8,1-6.7,3-8.8,2-2,4.7-3.1,8.2-3.1s4.1.5,5.7,1.4c1.7.9,3,2.3,3.9,4,1,1.8,1.4,3.9,1.4,6.4v.2ZM1429.9,720.2c0,2.3.4,4,1.1,5.1.7,1.2,2,1.7,3.6,1.7s2.8-.6,3.6-1.7c.7-1.2,1.1-2.9,1.1-5.1s-.4-4-1.1-5.1-2-1.7-3.6-1.7-2.8.6-3.6,1.7c-.7,1.1-1.1,2.8-1.1,5.1Z"/>
            <path d="M1463.9,708.3c2.5,0,4.4.7,5.9,2s2.2,3.5,2.2,6.4v15h-6.3v-13.4c0-1.7-.3-2.9-.9-3.7s-1.5-1.2-2.8-1.2c-1.9,0-3.2.7-3.9,2-.7,1.3-1,3.2-1,5.6v10.8h-6.3v-22.9h4.8l.8,2.9h.3c.7-1.2,1.7-2,3-2.6,1.3-.5,2.6-.8,4.1-.8h.1Z"/>
            <path d="M1487.9,708.3c3.1,0,5.4.7,7.1,2,1.6,1.3,2.5,3.4,2.5,6.1v15.3h-4.4l-1.2-3.1h-.2c-1,1.2-2,2.1-3.1,2.7-1.1.6-2.6.8-4.5.8s-3.7-.6-5.1-1.8c-1.3-1.2-2-3-2-5.5s.9-4.2,2.6-5.4,4.3-1.8,7.7-1.9h4v-1.1c0-1.2-.3-2.1-.9-2.6-.6-.6-1.5-.8-2.6-.8s-2.2.2-3.3.5c-1.1.3-2.1.7-3.2,1.2l-2.1-4.2c1.2-.6,2.6-1.1,4.1-1.5s3.1-.5,4.7-.5v-.2ZM1488.8,721.2c-2,0-3.4.4-4.2,1.1-.8.7-1.2,1.6-1.2,2.6s.3,1.6.8,2c.6.4,1.3.6,2.2.6,1.3,0,2.5-.4,3.4-1.2s1.4-1.9,1.4-3.4v-1.9h-2.4v.2Z"/>
            <path d="M1513.5,727.1c.7,0,1.4,0,2-.2.6,0,1.3-.3,1.9-.5v4.7c-.7.3-1.5.5-2.5.7s-2.1.3-3.3.3-2.6-.2-3.7-.7c-1.1-.4-1.9-1.2-2.6-2.3-.6-1.1-.9-2.6-.9-4.6v-11h-3v-2.6l3.4-2.1,1.8-4.8h4v4.9h6.4v4.7h-6.4v11c0,.9.3,1.5.8,2,.5.4,1.2.7,2,.7v-.2Z"/>
          </g>
        </g>
        <g class="cls-1">
          <g class="cls-1">
            <path d="M1395.9,596.9h-6.3v-30h17.2v5.2h-10.9v7.7h10.2v5.2h-10.2v11.8h0Z"/>
            <path d="M1425,573.5h1.1c.4,0,.8,0,1,0l-.5,5.9c-.2,0-.5,0-.9,0h-1c-1.1,0-2.1.2-3.1.6-1,.4-1.8,1-2.4,1.8s-.9,2-.9,3.4v11.7h-6.3v-22.9h4.7l.9,3.9h.3c.7-1.2,1.6-2.2,2.8-3s2.5-1.3,4.1-1.3h.2Z"/>
            <path d="M1434.5,565c.9,0,1.7.2,2.4.7.7.4,1,1.2,1,2.4s-.3,1.9-1,2.4c-.7.4-1.5.7-2.4.7s-1.8-.2-2.4-.7c-.7-.4-1-1.2-1-2.4s.3-2,1-2.4,1.5-.7,2.4-.7ZM1437.6,574v22.9h-6.3v-22.9h6.3Z"/>
            <path d="M1460.1,590.1c0,2.3-.8,4.1-2.5,5.4-1.6,1.2-4.1,1.9-7.3,1.9s-3,0-4.1-.3-2.3-.6-3.4-1v-5.2c1.2.6,2.6,1,4,1.4s2.7.5,3.8.5,2.1-.2,2.6-.5c.5-.4.8-.8.8-1.4s0-.7-.3-1c-.2-.3-.7-.7-1.4-1.1-.7-.4-1.8-.9-3.3-1.5-1.4-.6-2.6-1.2-3.5-1.8s-1.6-1.3-2.1-2.2c-.4-.9-.7-1.9-.7-3.2,0-2.1.8-3.7,2.5-4.8s3.8-1.6,6.6-1.6,2.8,0,4.1.4c1.3.3,2.6.7,4,1.4l-1.9,4.5c-1.1-.5-2.2-.9-3.2-1.2s-2-.5-3.1-.5c-1.8,0-2.8.5-2.8,1.5s0,.7.4,1c.2.3.7.6,1.4.9.7.3,1.7.8,3,1.3s2.5,1.1,3.4,1.7c1,.6,1.7,1.3,2.2,2.1.5.9.8,2,.8,3.3h0Z"/>
            <path d="M1474.6,592.3c.7,0,1.4,0,2-.2.6,0,1.3-.3,1.9-.5v4.7c-.7.3-1.5.5-2.5.7s-2.1.3-3.3.3-2.6-.2-3.7-.7-1.9-1.2-2.6-2.3c-.6-1.1-.9-2.6-.9-4.6v-11h-3v-2.6l3.4-2.1,1.8-4.8h4v4.9h6.4v4.7h-6.4v11c0,.9.3,1.5.8,2,.5.4,1.2.7,2,.7v-.2Z"/>
          </g>
        </g>
      </g>
    </g>
  </g>
</svg>